<svg width="224" height="239" viewBox="0 0 224 239" fill="none" xmlns="http://www.w3.org/2000/svg">
<path d="M86.9867 132.257H115.827V203.957C115.827 214.512 128.147 219.492 134.68 211.525L205.333 125.883C211.493 118.415 206.547 106.763 197.213 106.763H168.373V35.0633C168.373 24.5074 156.053 19.5283 149.52 27.4949L78.8667 113.137C72.8 120.605 77.7467 132.257 86.9867 132.257ZM79.3333 47.3021H14C10.1733 47.3021 7 43.9162 7 39.8333C7 35.7504 10.1733 32.3646 14 32.3646H79.3333C83.16 32.3646 86.3333 35.7504 86.3333 39.8333C86.3333 43.9162 83.16 47.3021 79.3333 47.3021ZM70 206.635H14C10.1733 206.635 7 203.25 7 199.167C7 195.084 10.1733 191.698 14 191.698H70C73.8267 191.698 77 195.084 77 199.167C77 203.25 73.8267 206.635 70 206.635ZM42 126.969H14C10.1733 126.969 7 123.583 7 119.5C7 115.417 10.1733 112.031 14 112.031H42C45.8267 112.031 49 115.417 49 119.5C49 123.583 45.8267 126.969 42 126.969Z" fill="black"/>
</svg>
