<svg width="218" height="218" viewBox="0 0 218 218" fill="none" xmlns="http://www.w3.org/2000/svg">
<path d="M87.2 181.667H130.8C167.133 181.667 181.667 167.133 181.667 130.8V87.2C181.667 50.8667 167.133 36.3333 130.8 36.3333H87.2C50.8666 36.3333 36.3333 50.8667 36.3333 87.2V130.8C36.3333 167.133 50.8666 181.667 87.2 181.667Z" stroke="black" stroke-width="13.625" stroke-linecap="round" stroke-linejoin="round"/>
<path d="M72.7575 36.3333V18.1667M109 36.3333V18.1667M145.333 36.3333V18.1667M181.667 72.6667H199.833M181.667 109H199.833M181.667 145.333H199.833M145.333 181.667V199.833M109.091 181.667V199.833M72.7575 181.667V199.833M18.1667 72.6667H36.3334M18.1667 109H36.3334M18.1667 145.333H36.3334M95.375 154.417H122.625C145.333 154.417 154.417 145.333 154.417 122.625V95.375C154.417 72.6667 145.333 63.5833 122.625 63.5833H95.375C72.6667 63.5833 63.5834 72.6667 63.5834 95.375V122.625C63.5834 145.333 72.6667 154.417 95.375 154.417Z" stroke="black" stroke-width="13.625" stroke-linecap="round" stroke-linejoin="round"/>
<path d="M109 88.1083L100.462 103.005C98.5541 106.275 100.098 109 103.913 109H114.087C117.902 109 119.446 111.725 117.538 114.995L109 129.892" stroke="black" stroke-width="13.625" stroke-linecap="round" stroke-linejoin="round"/>
</svg>
